<?xml version="1.0" encoding="iso-8859-1"?>
<!-- Uploaded to: SVG Repo, www.svgrepo.com, Generator: SVG Repo Mixer Tools -->
<svg height="800px" width="800px" version="1.1" id="Layer_1" xmlns="http://www.w3.org/2000/svg" xmlns:xlink="http://www.w3.org/1999/xlink" 
	 viewBox="0 0 512 512" xml:space="preserve">
<path style="fill:#A9CF54;" d="M294.265,109.051c-15.447,20.48-22.714,43.809-22.714,43.809L256,151.347l-15.55,1.514
	c0,0-7.268-23.33-22.715-43.81s-65.751-43.482-44.194-73.296c21.558-29.826,57.129,6.823,57.129,6.823C229.236,1.616,256,0,256,0
	s26.764,1.616,25.33,42.576c0,0,35.57-36.649,57.129-6.823C360.016,65.568,309.712,88.571,294.265,109.051z"/>
<path style="fill:#92B83D;" d="M252.778,151.66l-12.331,1.196c0,0-7.265-23.326-22.711-43.806
	c-14.865-19.704-61.99-41.736-46.339-69.934c15.166,7.06,31.184,16.028,41.844,26.095
	C232.448,83.364,252.778,106.879,252.778,151.66z"/>
<path style="fill:#7C9E2F;" d="M319.885,44.151c-1.959-4.169-6.93-5.963-11.095-3.999c-0.638,0.3-15.807,7.544-30.856,24.483
	c-4.471,5.032-9.217,11.282-13.595,18.806V31.39c0-4.606-3.733-8.339-8.339-8.339s-8.339,3.733-8.339,8.339v52.057
	c-4.379-7.526-9.126-13.779-13.598-18.812c-15.049-16.939-30.217-24.183-30.856-24.483c-4.156-1.955-9.101-0.171-11.071,3.98
	c-1.969,4.151-0.195,9.12,3.951,11.102c0.131,0.063,13.188,6.406,25.989,21.024c16.975,19.385,25.583,43.537,25.583,71.784
	c0,4.606,3.733,8.339,8.339,8.339H256h0.002c4.606,0,8.339-3.733,8.339-8.339c0-28.248,8.608-52.4,25.583-71.784
	c12.771-14.585,25.797-20.932,25.987-21.023C320.061,53.267,321.841,48.311,319.885,44.151z"/>
<path style="fill:#E86F22;" d="M256,512L256,512c-16.035,0-29.679-11.683-32.148-27.527l-38.984-250.214
	c-6.801-43.651,26.955-83.074,71.132-83.074l0,0c44.177,0,77.934,39.423,71.132,83.074l-38.984,250.214
	C285.679,500.317,272.035,512,256,512z"/>
<path style="fill:#C9571E;" d="M257.391,511.968C256.927,511.99,256.464,512,256,512c-16.039,0-29.674-11.684-32.154-27.53
	L184.87,234.259c-3.427-22.033,3.46-42.986,16.816-58.325c-0.442,6.274-0.183,12.72,0.83,19.241l46.435,298.038
	C250.061,500.326,253.058,506.74,257.391,511.968z"/>
<g>
	<path style="fill:#9E4418;" d="M322.463,264.235l-2.565,16.427c-0.894-0.13-1.778-0.432-2.62-0.884
		c-7.934-4.323-16.492-7.685-25.438-9.97c-4.323-1.099-6.931-5.508-5.82-9.83c1.099-4.333,5.508-6.941,9.83-5.832
		C305.142,256.517,314.088,259.913,322.463,264.235z"/>
	<path style="fill:#9E4418;" d="M251.128,266.272c-32.024,1.973-56.535,13.582-56.772,13.7c-0.734,0.345-1.488,0.582-2.253,0.701
		l-2.544-16.276c7.146-3.104,30.752-12.428,60.566-14.271c4.473-0.27,8.3,3.115,8.569,7.578
		C258.975,262.154,255.58,265.992,251.128,266.272z"/>
	<path style="fill:#9E4418;" d="M309.82,345.4l-2.522,16.147c-0.582-0.075-1.176-0.237-1.746-0.464
		c-13.182-5.27-27.723-8.052-43.202-8.279c-4.463-0.065-8.02-3.741-7.955-8.202c0.065-4.42,3.664-7.965,8.074-7.965h0.13
		C279.38,336.886,295.267,339.828,309.82,345.4z"/>
	<path style="fill:#9E4418;" d="M231.909,355.436c-8.709,1.584-17.354,3.837-25.697,6.704c-0.452,0.15-0.916,0.259-1.369,0.334
		l-2.512-16.092c8.688-2.9,17.656-5.207,26.678-6.856c4.388-0.787,8.612,2.113,9.41,6.511
		C239.217,350.423,236.307,354.638,231.909,355.436z"/>
	<path style="fill:#9E4418;" d="M297.854,422.2l-2.5,16.017c-0.312-0.043-0.625-0.108-0.937-0.194
		c-6.414-1.8-13.172-3.082-20.081-3.806c-4.441-0.452-7.664-4.43-7.2-8.871c0.463-4.441,4.43-7.664,8.882-7.211
		C283.498,418.924,290.838,420.292,297.854,422.2z"/>
	<path style="fill:#9E4418;" d="M248.789,433.949c-10.23,0.787-20.685,2.608-31.087,5.4c-0.292,0.075-0.572,0.14-0.852,0.183
		l-2.5-16.017c11.092-2.932,22.248-4.84,33.188-5.68c4.473-0.355,8.342,2.985,8.687,7.438
		C256.56,429.725,253.24,433.604,248.789,433.949z"/>
</g>
</svg>